<svg width="26" height="26" viewBox="0 0 26 26" fill="none" xmlns="http://www.w3.org/2000/svg">
<path d="M2.17097 23.8334L3.63564 18.4514C2.67054 16.797 2.16349 14.9154 2.16664 13.0001C2.16664 7.01683 7.01672 2.16675 13 2.16675C18.9832 2.16675 23.8333 7.01683 23.8333 13.0001C23.8333 18.9833 18.9832 23.8334 13 23.8334C11.0855 23.8365 9.20469 23.3298 7.55081 22.3655L2.17097 23.8334ZM9.09022 7.91708C8.95033 7.92577 8.81362 7.96262 8.68831 8.02541C8.57079 8.09196 8.46351 8.17516 8.36981 8.27242C8.23981 8.39483 8.16614 8.501 8.08706 8.60391C7.68667 9.12499 7.4713 9.76462 7.47497 10.4217C7.47714 10.9526 7.61581 11.4693 7.83247 11.9525C8.27556 12.9297 9.00464 13.9642 9.96772 14.923C10.1996 15.1537 10.426 15.3856 10.6697 15.6012C11.8651 16.6536 13.2895 17.4125 14.8297 17.8177L15.4461 17.9119C15.6466 17.9227 15.847 17.9076 16.0485 17.8978C16.364 17.8815 16.6721 17.7961 16.9509 17.6476C17.1307 17.5522 17.2152 17.5046 17.3658 17.4092C17.3658 17.4092 17.4124 17.3789 17.5012 17.3117C17.6475 17.2034 17.7374 17.1265 17.8587 16.9997C17.9486 16.9066 18.0266 16.7972 18.0862 16.6726C18.1707 16.496 18.2552 16.1591 18.2899 15.8785C18.3159 15.664 18.3083 15.547 18.3051 15.4744C18.3007 15.3585 18.2043 15.2382 18.0992 15.1873L17.4687 14.9046C17.4687 14.9046 16.5262 14.494 15.951 14.2318C15.8903 14.2054 15.8253 14.1903 15.7592 14.1874C15.6851 14.1798 15.6102 14.1881 15.5396 14.2119C15.4689 14.2356 15.4042 14.2742 15.3497 14.325V14.3228C15.3443 14.3228 15.2717 14.3846 14.4885 15.3336C14.4435 15.394 14.3816 15.4396 14.3106 15.4647C14.2396 15.4898 14.1627 15.4932 14.0898 15.4744C14.0192 15.4555 13.9501 15.4316 13.8829 15.4029C13.7486 15.3466 13.702 15.3249 13.6099 15.2848L13.6045 15.2827C12.9847 15.0121 12.4109 14.6466 11.9036 14.1993C11.7671 14.0802 11.6404 13.9502 11.5104 13.8245C11.0842 13.4163 10.7127 12.9546 10.4054 12.4508L10.3415 12.3479C10.2956 12.2788 10.2584 12.2042 10.231 12.1258C10.1898 11.9666 10.2971 11.8387 10.2971 11.8387C10.2971 11.8387 10.5603 11.5506 10.6827 11.3946C10.7847 11.2649 10.8798 11.1301 10.9676 10.9905C11.0955 10.7847 11.1356 10.5734 11.0684 10.4098C10.7651 9.66883 10.4509 8.93108 10.1281 8.19875C10.0641 8.05358 9.87456 7.94958 9.70231 7.929C9.64381 7.9225 9.58531 7.916 9.52681 7.91166C9.38132 7.90444 9.23554 7.90588 9.09022 7.916V7.91708Z" fill="white"/>
</svg>
